<?xml version="1.0" encoding="UTF-8" standalone="no"?>
<svg width="422px" height="363px" viewBox="0 0 422 363" version="1.1" xmlns="http://www.w3.org/2000/svg" xmlns:xlink="http://www.w3.org/1999/xlink" xmlns:sketch="http://www.bohemiancoding.com/sketch/ns">
    <title>animated comp 2</title>
    <description>Created with Sketch (http://www.bohemiancoding.com/sketch)</description>
    <defs></defs>
    <g id="Page-1" stroke="none" stroke-width="1" fill="none" fill-rule="evenodd" sketch:type="MSPage">
        <g id="finger" sketch:type="MSArtboardGroup" transform="translate(0.000000, 1.000000)">
            <g id="finger-copy-2" sketch:type="MSLayerGroup">
                <rect id="Rectangle-50" fill="#FFDDB3" sketch:type="MSShapeGroup" transform="translate(221.000000, 188.500000) rotate(39.000000) translate(-221.000000, -188.500000) " x="-5" y="148" width="452" height="81"></rect>
                <path d="M41,85 C63.6436759,85 82,65.972103 82,42.5 C82,19.027897 63.6436759,0 41,0 C18.3563241,0 0,19.027897 0,42.5 C0,65.972103 18.3563241,85 41,85 Z" id="Oval-1" fill="#FFDDB3" sketch:type="MSShapeGroup"></path>
                <path d="M39.5,66 C53.030977,66 64,54.8071194 64,41 C64,27.1928806 53.030977,16 39.5,16 C25.969023,16 15,27.1928806 15,41 C15,54.8071194 25.969023,66 39.5,66 Z" id="Oval-1-copy-2" fill="#FFF9F2" sketch:type="MSShapeGroup"></path>
                <path d="M41.5,68 C55.030977,68 66,56.8071194 66,43 C66,29.1928806 55.030977,18 41.5,18 C27.969023,18 17,29.1928806 17,43 C17,56.8071194 27.969023,68 41.5,68 Z" id="Oval-1-copy" fill="#FCEEDE" sketch:type="MSShapeGroup"></path>
                <rect id="Rectangle-51" fill="#D8BA96" sketch:type="MSShapeGroup" transform="translate(81.500000, 72.500000) rotate(313.000000) translate(-81.500000, -72.500000) " x="61" y="71" width="41" height="3" rx="8"></rect>
                <rect id="Rectangle-51-copy" fill="#D8BA96" sketch:type="MSShapeGroup" transform="translate(88.500000, 77.500000) rotate(313.000000) translate(-88.500000, -77.500000) " x="68" y="76" width="41" height="3" rx="8"></rect>
                <rect id="Rectangle-51-copy-2" fill="#D8BA96" sketch:type="MSShapeGroup" transform="translate(94.500000, 81.500000) rotate(313.000000) translate(-94.500000, -81.500000) " x="74" y="80" width="41" height="3" rx="8"></rect>
            </g>
        </g>
    </g>
</svg>