<?xml version="1.0" encoding="UTF-8" standalone="no"?>
<svg width="232px" height="232px" viewBox="0 0 232 232" version="1.1" xmlns="http://www.w3.org/2000/svg" xmlns:xlink="http://www.w3.org/1999/xlink" xmlns:sketch="http://www.bohemiancoding.com/sketch/ns">
    <!-- Generator: Sketch 3.0.1 (7597) - http://www.bohemiancoding.com/sketch -->
    <title>blue gear 2</title>
    <description>Created with Sketch.</description>
    <defs></defs>
    <g id="Page-1" stroke="none" stroke-width="1" fill="none" fill-rule="evenodd" sketch:type="MSPage">
        <g id="gears" sketch:type="MSLayerGroup" transform="translate(-26.000000, -105.000000)">
            <g id="blue-gear-2" transform="translate(141.482509, 220.313424) rotate(15.000000) translate(-141.482509, -220.313424) translate(25.982509, 105.313424)" sketch:type="MSShapeGroup">
                <rect id="Rectangle-15" fill="#DAD49B" transform="translate(115.946788, 115.034135) rotate(94.000000) translate(-115.946788, -115.034135) " x="104.338748" y="0.114537466" width="22.7768632" height="229.839196"></rect>
                <rect id="Rectangle-17" fill="#DAD49B" transform="translate(115.946788, 115.034135) rotate(124.000000) translate(-115.946788, -115.034135) " x="104.338748" y="0.114537466" width="22.7768632" height="229.839196"></rect>
                <rect id="Rectangle-18" fill="#DAD49B" transform="translate(115.946788, 115.034135) rotate(154.000000) translate(-115.946788, -115.034135) " x="104.338748" y="0.114537466" width="22.7768632" height="229.839196"></rect>
                <rect id="Rectangle-19" fill="#DAD49B" transform="translate(115.946788, 115.034135) rotate(184.000000) translate(-115.946788, -115.034135) " x="104.338748" y="0.114537466" width="22.7768632" height="229.839196"></rect>
                <rect id="Rectangle-16" fill="#DAD49B" transform="translate(115.946788, 115.034135) rotate(64.000000) translate(-115.946788, -115.034135) " x="104.338748" y="0.114537466" width="22.7768632" height="229.839196"></rect>
                <rect id="Rectangle-13" fill="#DAD49B" transform="translate(115.764724, 114.911332) rotate(34.000000) translate(-115.764724, -114.911332) " x="104.376293" y="-0.00826610137" width="22.7768632" height="229.839196"></rect>
                <circle id="Oval-2" stroke="#DAD49B" stroke-width="18" fill="#222222" cx="115.339196" cy="114.339196" r="87.6407035"></circle>
            </g>
        </g>
    </g>
</svg>