<?xml version="1.0" encoding="UTF-8" standalone="no"?>
<svg width="1328px" height="1788px" viewBox="0 0 1328 1788" version="1.1" xmlns="http://www.w3.org/2000/svg" xmlns:xlink="http://www.w3.org/1999/xlink" xmlns:sketch="http://www.bohemiancoding.com/sketch/ns">
    <!-- Generator: Sketch 3.0.1 (7597) - http://www.bohemiancoding.com/sketch -->
    <title>head 2</title>
    <description>Created with Sketch.</description>
    <defs></defs>
    <g id="Page-1" stroke="none" stroke-width="1" fill="none" fill-rule="evenodd" sketch:type="MSPage">
        <g id="head-2" sketch:type="MSLayerGroup" transform="translate(5.000000, 5.000000)" stroke="#FFFFFF" stroke-width="9" stroke-linecap="round" stroke-linejoin="round">
            <path d="M203.5,1010.5 C203.5,1010.5 111.373749,802.272707 57.4278601,630.722154 C47.3603409,598.706953 -0.136604414,409.324632 -0.136604501,340.688188 C-0.136604414,340.688188 133.151887,117.595 378.000008,36.9999983 C498.53092,-2.67434732 653.937817,-20.5028421 839,36.9999983 C907.928619,45.1502095 1214.8594,82.7308871 1297.99999,288.707109 C1314.97632,330.765027 1332.42309,394.982865 1298.00004,447.595343 C1265.37352,509.559066 1164.60278,562.211412 1164.60278,562.211412 C1164.60278,562.211412 1172.53362,612.070422 1164.60282,646.512803 C1161.73865,658.951517 1143.30653,678.33501 1138.00004,685.93657 C1152.17384,758.735303 1221.2006,846.909526 1241.84562,877.999986 C1272.36966,913.064921 1277.89886,937.446106 1272.47514,953.178941 C1267.05141,968.911776 1241.84562,996.999986 1190.96195,996.999986 C1190.96195,996.999986 1181.49002,1011.17675 1190.96195,1037.00005 C1190.96195,1037.00005 1197.41784,1065.78142 1218.00004,1088.8488 C1214.32072,1102.84868 1140.21703,1110.99992 1140.21703,1164.96636 C1140.21703,1218.93279 1174.61987,1193.27922 1174.61987,1223.11675 C1174.61987,1252.95427 1158.70263,1231.16472 1147.68005,1263.87932 C1146.44845,1267.53464 1149.87438,1277.78546 1147.68005,1308.57146 C1146.94998,1318.8141 1144.7717,1329.55189 1140.217,1340.11516 C1121.97237,1382.42815 947.642678,1349.13152 798.999978,1337.00005 C725.57078,1317.00003 707.417515,1474.21183 657.976135,1576.99998 C608.534756,1679.78814 621.296352,1617.00002 609.648176,1757 C609.648193,1756.99998 558,1750.71498 558,1777 C558,1803.28502 272.439789,1145.14216 178,1110.99998 C188.793888,1060.31213 203.5,1010.5 203.5,1010.5 Z" id="Path-1" sketch:type="MSShapeGroup"></path>
            <path d="M1089,677 L1089,838 L1118,847.301203 L1118,670.058373 L1089,677 Z" id="Path-2" sketch:type="MSShapeGroup"></path>
            <path d="M1165.16479,562.439742 C1165.16479,562.439742 1128.42778,389.628382 1037.42842,287.640676 C978.408286,221.493747 917.705144,224.51221 916.643173,224.17319" id="Path-3" sketch:type="MSShapeGroup"></path>
            <path d="M1088.53564,677 L339.874069,655.916259 L360.815909,672.334874 L1088.53564,697 L1088.53564,677 Z" id="Path-4" sketch:type="MSShapeGroup"></path>
            <path d="M369.261041,684.960426 C324.901208,629.690516 289.274797,625.119222 229.274795,661.749131 C168.698414,707.202146 221.940137,819.826932 278,897.999986 C305.875665,937.999986 427.650865,996.999986 438.000007,897.999986" id="Path-5" sketch:type="MSShapeGroup"></path>
        </g>
    </g>
</svg>