<?xml version="1.0" encoding="UTF-8" standalone="no"?>
<svg width="527px" height="247px" viewBox="0 0 527 247" version="1.1" xmlns="http://www.w3.org/2000/svg" xmlns:xlink="http://www.w3.org/1999/xlink" xmlns:sketch="http://www.bohemiancoding.com/sketch/ns">
    <title>Untitled 1</title>
    <description>Created with Sketch (http://www.bohemiancoding.com/sketch)</description>
    <defs></defs>
    <g id="Page-1" stroke="none" stroke-width="1" fill="none" fill-rule="evenodd" sketch:type="MSPage">
        <g id="Group" sketch:type="MSLayerGroup" transform="translate(2.000000, 2.000000)" stroke="#FFFFFF" stroke-opacity="0.203555836" stroke-width="4" stroke-linecap="round" stroke-linejoin="round">
            <path d="M27,195 C27,195 53.0701872,183.464519 66.1052807,177.696778 C90.7368533,166.797852 140,145 140,145 L49.8626881,127.545994 L142.706422,121.453355 L105.286397,49.7833336 L157.627439,55.8575421 L188.013251,0.196094341 L234.012894,35.4490607 L265.795076,35.5215645 L303.185562,4.09653109 L355.378906,13.5569305 L368.280562,55.0734268 L413.689433,78.7257826 L522.857354,79.6535629 L456.485481,157.266212 L348.456146,242.557553 L259.712811,241.719731 L210.618329,207.978603 L128.361408,238.346961 L140,144.999996 M26,100 L17.0023248,88.5798738 L0,67 L105.14507,49.8071747 L48.8474699,126.896038 L88.5371121,167.337845 L27.1418734,194.937554 L39.4265337,153.602978 M18,127.080133 L25.2266764,135.357948 C29.7786039,140.571965 39.4966793,153.393295 39.4966793,153.393295 L48.3167305,127.080133 L26.597819,101 L18,127.080134 L48.3167305,127.080133 M259.320997,242.116171 L257.751332,175.999298 M120.557339,154.473171 L135,185 M262.357914,118.321951 L188.579855,173.266012 M235.245296,36.7599851 L261.841211,116.450113 M129.287895,237.10379 L188.274223,173.089882 L211.695274,209.009865 L257.370995,175.429085 L188.274223,173.089882 L141.145157,120.855769 L262.870099,117.057617 L257.370995,175.429085 L347.859198,242.327482 L305.584171,148.859043 L262.870094,117.057615 L265.162653,35.6774872 L306.256394,79.7146542 L282.410689,100.238858 L262.870094,117.057615 L257.370995,175.429082 L305.584175,148.859045 L306.256401,79.7146583 L303.786464,4.27847458 L354.844521,13.6840351 L306.256401,79.7146583 L367.431861,55.1746832 L343.476437,119.124594 L306.256401,79.7146583 L305.584175,148.859045 L343.476433,119.124593 L347.8592,242.327482 L407.544151,130.758421 L343.476433,119.124593 L367.431862,55.1746803 L407.544151,130.758421 L413.137016,79.7146583 L454.570896,92.7065525 L407.544151,130.758421 L454.570885,157.431333 L454.570885,92.7065559 L521.964256,79.7146583 M188.95896,173.431515 L140.367377,145.490629 L142.369538,121.104885 L237.603935,35.5505018 L158.123356,56.2023602 L156.811011,107.721789 L142.369538,121.104884 L139.84988,115.595859 L156.285616,58.2834873" id="Line-copy" sketch:type="MSShapeGroup"></path>
        </g>
    </g>
</svg>